<svg xmlns="http://www.w3.org/2000/svg" viewBox="0 0 420 520" fill="none" stroke="#000" stroke-width="2" stroke-linejoin="round" stroke-linecap="round" aria-hidden="true">
  <!-- Crystal / low-poly variant for /screening-command (violet). Faceted polygonal head. -->
  <!-- Fill silhouette (polygonal) -->
  <path d="M 180 70 L 128 116 L 96 176 L 86 236 L 104 294 L 128 342 L 134 398 L 148 454 L 196 472 L 252 470 L 286 440 L 308 394 L 322 342 L 334 286 L 338 222 L 320 158 L 286 108 L 232 74 Z" fill="#000" fill-opacity="0.15"/>
  <!-- Head outline -->
  <path d="M 180 70 L 128 116 L 96 176 L 86 236 L 104 294 L 128 342 L 134 398 L 148 454" stroke-width="2.8"/>
  <path d="M 232 74 L 286 108 L 320 158 L 338 222 L 334 286 L 322 342 L 308 394 L 286 440" stroke-width="2.8"/>
  <!-- Internal crystal facets -->
  <path d="M 128 116 L 176 150 L 232 74"/>
  <path d="M 96 176 L 176 150 L 220 198 L 176 240 L 96 176"/>
  <path d="M 176 150 L 232 74 L 286 108 L 250 168 L 220 198 L 176 150"/>
  <path d="M 286 108 L 320 158 L 270 196 L 250 168 Z"/>
  <path d="M 320 158 L 338 222 L 292 252 L 270 196 Z"/>
  <path d="M 220 198 L 270 196 L 292 252 L 240 276 Z"/>
  <path d="M 176 240 L 220 198 L 240 276 L 188 294 Z"/>
  <path d="M 86 236 L 176 240 L 188 294 L 104 294 Z"/>
  <path d="M 104 294 L 188 294 L 226 338 L 128 342 Z"/>
  <path d="M 188 294 L 240 276 L 292 252 L 310 314 L 262 344 L 226 338 Z"/>
  <path d="M 292 252 L 338 222 L 334 286 L 310 314 Z"/>
  <path d="M 310 314 L 334 286 L 322 342 L 286 360 Z"/>
  <path d="M 262 344 L 310 314 L 286 360 L 250 382 Z"/>
  <path d="M 226 338 L 262 344 L 250 382 L 196 388 Z"/>
  <path d="M 128 342 L 226 338 L 196 388 L 134 398 Z"/>
  <path d="M 134 398 L 196 388 L 218 440 L 168 448 Z"/>
  <path d="M 196 388 L 250 382 L 268 430 L 218 440 Z"/>
  <path d="M 250 382 L 286 360 L 308 394 L 268 430 Z"/>
  <!-- Eye (facet gem) -->
  <path d="M 98 218 L 116 210 L 128 224 L 116 236 Z" fill="#000"/>
  <!-- Brow slash -->
  <path d="M 88 206 L 136 198"/>
  <!-- Mouth slash -->
  <path d="M 110 280 L 138 286"/>
  <!-- Crown crystal spikes -->
  <path d="M 180 70 L 190 40 L 210 60 L 232 74"/>
  <path d="M 206 62 L 220 36 L 248 50"/>
  <path d="M 226 50 L 258 28 L 274 66"/>
  <!-- Radiating crystal shards from crown -->
  <path d="M 232 74 L 290 40" stroke-width="1.6" opacity="0.7"/>
  <path d="M 250 80 L 320 62" stroke-width="1.6" opacity="0.7"/>
  <path d="M 270 94 L 350 94" stroke-width="1.6" opacity="0.7"/>
  <path d="M 286 108 L 360 130" stroke-width="1.6" opacity="0.65"/>
  <path d="M 308 136 L 376 166" stroke-width="1.6" opacity="0.6"/>
  <path d="M 320 158 L 378 210" stroke-width="1.6" opacity="0.55"/>
  <!-- Small facet gems floating around head -->
  <path d="M 350 94 L 360 86 L 368 96 L 358 104 Z" fill="#000"/>
  <path d="M 376 166 L 386 158 L 394 170 L 384 178 Z" fill="#000"/>
  <path d="M 290 40 L 300 32 L 308 42 L 298 50 Z" fill="#000"/>
  <!-- Neck polygon -->
  <path d="M 148 454 L 172 506 L 230 514 L 278 498 L 286 440"/>
  <path d="M 172 506 L 216 480 L 260 506"/>
  <path d="M 216 480 L 210 454"/>
  <path d="M 216 480 L 240 462"/>
</svg>
