<svg xmlns="http://www.w3.org/2000/svg" viewBox="0 0 480 640" aria-hidden="true">
  <!-- Sleek DJ/headphones cyborg profile — Routines. Smooth curves, prominent ear disc. -->
  <g fill="#000">
    <!-- Head + jaw -->
    <path d="M 238 64
             C 172 68 124 120 108 188
             C 92 258 100 326 128 382
             L 142 428
             L 152 476
             L 190 498
             L 244 504
             L 296 494
             L 340 470
             L 366 430
             C 382 396 388 356 386 316
             L 392 258
             C 394 198 382 142 350 104
             C 320 76 282 64 250 64 Z"/>
    <!-- Chin + neck (long, sleek) -->
    <path d="M 186 496
             L 178 540
             L 168 578
             L 154 618
             L 366 618
             L 346 574
             L 322 536
             L 296 506 Z"/>
    <!-- Headphone band arch -->
    <path d="M 168 108
             Q 246 40 344 108
             L 344 130
             Q 246 66 168 130 Z"/>
    <!-- Headphone ear cup (right) -->
    <circle cx="356" cy="306" r="46"/>
    <!-- Headphone ear cup (left, partial) -->
    <circle cx="108" cy="306" r="18"/>
  </g>
  <!-- Ear cup detail -->
  <g>
    <circle cx="356" cy="306" r="30" fill="#ffffff" fill-opacity="0.28"/>
    <circle cx="356" cy="306" r="14" fill="#000"/>
    <circle cx="356" cy="306" r="6" fill="#ffffff" fill-opacity="0.8"/>
  </g>
  <!-- Eye -->
  <g>
    <ellipse cx="232" cy="258" rx="18" ry="7" fill="#ffffff" fill-opacity="0.45"/>
    <circle cx="232" cy="258" r="4.5" fill="#000"/>
  </g>
  <!-- Brow -->
  <path d="M 198 232 L 276 226" stroke="#ffffff" stroke-opacity="0.35" stroke-width="4" stroke-linecap="round" fill="none"/>
  <!-- Lip suggestion -->
  <path d="M 202 348 Q 226 356 252 350" stroke="#ffffff" stroke-opacity="0.3" stroke-width="3" stroke-linecap="round" fill="none"/>
  <!-- Panel seams -->
  <g stroke="#ffffff" stroke-width="2.5" fill="none" stroke-opacity="0.2" stroke-linecap="round">
    <path d="M 120 200 L 200 188"/>
    <path d="M 114 296 L 196 292"/>
    <path d="M 132 388 L 220 390"/>
  </g>
  <!-- Collar -->
  <g stroke="#ffffff" stroke-width="2" fill="none" stroke-opacity="0.22">
    <path d="M 170 570 L 344 570"/>
    <path d="M 160 592 L 358 592"/>
  </g>
</svg>
