<svg xmlns="http://www.w3.org/2000/svg" viewBox="0 0 480 640" aria-hidden="true">
  <!-- Astronaut-helmet cyborg — Logistics. Rounded helmet, visor, armored shoulder -->
  <g fill="#000">
    <!-- Helmet dome -->
    <path d="M 234 56
             C 144 60 88 130 86 226
             C 84 298 110 358 148 400
             L 160 448
             L 172 490
             L 218 504
             L 282 500
             L 336 484
             L 378 452
             L 398 402
             C 412 346 410 282 392 224
             C 370 152 322 92 260 62
             C 252 58 244 56 234 56 Z"/>
    <!-- Shoulder pauldron (armored, right side) -->
    <path d="M 168 494
             L 156 540
             L 142 580
             L 130 620
             L 420 620
             L 398 572
             L 372 530
             L 342 502
             L 304 492
             L 258 498 Z"/>
    <!-- Antenna nub -->
    <rect x="206" y="40" width="14" height="24" rx="4"/>
    <circle cx="213" cy="32" r="7"/>
  </g>
  <!-- Visor band (tinted light) -->
  <g>
    <path d="M 138 238
             Q 244 210 366 232
             L 362 290
             Q 244 314 138 292 Z" fill="#ffffff" fill-opacity="0.36"/>
    <path d="M 150 254 Q 242 234 354 256" stroke="#000" stroke-width="3" fill="none" stroke-opacity="0.6"/>
  </g>
  <!-- Helmet panel seams -->
  <g stroke="#ffffff" stroke-width="3" fill="none" stroke-opacity="0.25" stroke-linecap="round">
    <path d="M 100 170 Q 240 120 380 170"/>
    <path d="M 110 330 Q 246 360 378 332"/>
    <path d="M 160 410 Q 246 424 350 408"/>
  </g>
  <!-- Helmet vent louvers -->
  <g fill="#ffffff" fill-opacity="0.2">
    <rect x="330" y="350" width="38" height="4" rx="2"/>
    <rect x="330" y="362" width="38" height="4" rx="2"/>
    <rect x="330" y="374" width="38" height="4" rx="2"/>
  </g>
  <!-- Chest circuit detail -->
  <g stroke="#ffffff" stroke-width="2.5" fill="none" stroke-opacity="0.22" stroke-linecap="round">
    <path d="M 180 560 L 240 560 L 250 580 L 330 580"/>
    <circle cx="340" cy="580" r="5" fill="#ffffff" fill-opacity="0.35"/>
  </g>
</svg>
