<svg xmlns="http://www.w3.org/2000/svg" viewBox="0 0 480 640" aria-hidden="true">
  <!-- Faceted crystal / low-poly cyborg — Screening Command. Sharp polygonal planes. -->
  <g fill="#000">
    <!-- Polygonal head silhouette -->
    <path d="M 244 54
             L 184 82
             L 128 138
             L 102 214
             L 96 290
             L 110 360
             L 130 410
             L 140 462
             L 160 494
             L 208 510
             L 272 502
             L 328 482
             L 366 448
             L 388 398
             L 400 336
             L 404 266
             L 392 198
             L 362 134
             L 314 86
             L 262 56 Z"/>
    <!-- Neck polygon -->
    <path d="M 182 502
             L 170 544
             L 156 586
             L 142 622
             L 378 622
             L 360 582
             L 338 546
             L 320 516
             L 290 506 Z"/>
  </g>
  <!-- Facet highlight planes -->
  <g fill="#ffffff" fill-opacity="0.14">
    <path d="M 244 54 L 184 82 L 196 160 L 252 130 Z"/>
    <path d="M 262 56 L 314 86 L 302 160 L 252 130 Z"/>
    <path d="M 128 138 L 102 214 L 170 220 L 196 160 L 184 82 Z"/>
    <path d="M 110 360 L 130 410 L 186 396 L 170 330 L 102 290 L 96 290 Z"/>
    <path d="M 302 160 L 362 134 L 392 198 L 322 244 Z"/>
    <path d="M 252 130 L 302 160 L 322 244 L 252 256 L 196 244 L 196 160 Z"/>
    <path d="M 322 244 L 400 266 L 404 266 L 392 336 L 330 330 Z"/>
  </g>
  <g fill="#ffffff" fill-opacity="0.25">
    <path d="M 252 256 L 322 244 L 330 330 L 252 340 L 170 330 L 196 244 Z"/>
  </g>
  <!-- Eye slot -->
  <path d="M 212 288 L 292 282 L 286 308 L 216 312 Z" fill="#ffffff" fill-opacity="0.45"/>
  <circle cx="236" cy="298" r="5" fill="#000"/>
  <circle cx="272" cy="296" r="3" fill="#000"/>
  <!-- Jaw facet -->
  <path d="M 186 396 L 252 400 L 330 394 L 300 462 L 220 468 Z" fill="#ffffff" fill-opacity="0.1"/>
  <!-- Facet edge lines -->
  <g stroke="#ffffff" stroke-width="2.2" fill="none" stroke-opacity="0.22" stroke-linecap="round" stroke-linejoin="round">
    <path d="M 196 160 L 252 130 L 302 160"/>
    <path d="M 170 220 L 252 256 L 322 244"/>
    <path d="M 170 330 L 252 340 L 330 330"/>
    <path d="M 186 396 L 252 400 L 330 394"/>
  </g>
</svg>
