<svg xmlns="http://www.w3.org/2000/svg" viewBox="0 0 480 640" aria-hidden="true">
  <!-- Female cyborg profile with flowing cable-hair — Compliance Ops -->
  <g fill="#000">
    <!-- Flowing cable hair mass behind head -->
    <path d="M 264 44
             C 176 48 104 118 90 210
             C 78 292 98 370 140 436
             C 168 478 182 528 164 578
             L 138 626
             L 282 626
             L 266 574
             C 256 532 280 498 318 468
             C 364 430 396 378 402 314
             C 410 236 392 156 340 104
             C 312 76 288 52 264 44 Z"/>
    <!-- Face profile (strong jaw/cheekbone) -->
    <path d="M 222 142
             C 184 162 162 212 164 264
             C 166 310 182 352 202 384
             L 210 420
             L 216 458
             L 254 472
             L 294 462
             L 322 432
             C 342 400 350 354 344 304
             L 338 250
             C 330 206 312 166 278 148
             C 260 138 238 138 222 142 Z"/>
    <!-- Neck + shoulder suggestion -->
    <path d="M 216 472
             L 212 512
             L 200 558
             L 180 600
             L 348 600
             L 332 560
             L 310 524
             L 288 492 Z"/>
  </g>
  <!-- Eye, lip, jaw highlights (cutouts via white fill — subtle on tinted bg) -->
  <g fill="#ffffff" fill-opacity="0.42">
    <ellipse cx="250" cy="272" rx="14" ry="6"/>
    <circle cx="250" cy="272" r="3" fill="#000"/>
  </g>
  <g fill="#ffffff" fill-opacity="0.22">
    <path d="M 224 358 Q 250 364 276 358 L 276 368 Q 250 376 224 368 Z"/>
    <path d="M 214 306 Q 250 324 282 308 L 282 348 Q 250 364 212 348 Z"/>
  </g>
  <!-- Brow line -->
  <path d="M 218 252 L 282 248" stroke="#ffffff" stroke-opacity="0.35" stroke-width="4" stroke-linecap="round" fill="none"/>
  <!-- Cable hair flow seams -->
  <g stroke="#ffffff" stroke-width="2.4" fill="none" stroke-opacity="0.22" stroke-linecap="round">
    <path d="M 108 216 Q 154 196 200 202"/>
    <path d="M 100 268 Q 150 260 200 264"/>
    <path d="M 102 320 Q 152 322 200 324"/>
    <path d="M 110 372 Q 156 380 198 380"/>
    <path d="M 128 434 Q 170 444 204 442"/>
  </g>
</svg>
