<svg xmlns="http://www.w3.org/2000/svg" viewBox="0 0 480 640" aria-hidden="true">
  <!-- Chrome cyborg profile — Workbench. Solid silhouette facing right. -->
  <g fill="#000">
    <!-- Head + jaw -->
    <path d="M 232 70
             C 168 74 118 120 102 184
             C 88 242 94 304 118 358
             L 136 406
             L 146 464
             L 170 488
             L 216 500
             L 270 494
             L 322 470
             L 360 430
             C 378 400 388 360 388 320
             L 396 258
             C 402 198 388 138 350 104
             C 320 80 278 68 244 70 Z"/>
    <!-- Neck + collar -->
    <path d="M 178 498
             L 174 540
             L 168 578
             L 152 612
             L 378 612
             L 360 578
             L 338 548
             L 320 520
             L 298 510 Z"/>
    <!-- Crown accent panel -->
    <path d="M 244 72 L 308 94 L 336 80 L 306 70 L 272 64 Z"/>
  </g>
  <!-- Visor / cutout detail painted in white (same alpha, so subtle outline on tinted bg) -->
  <g fill="#ffffff" fill-opacity="0.28">
    <rect x="160" y="232" width="210" height="22" rx="6"/>
    <circle cx="208" cy="244" r="5" fill="#000"/>
    <circle cx="276" cy="244" r="3" fill="#000"/>
  </g>
  <!-- Panel seams -->
  <g stroke="#ffffff" stroke-width="3" fill="none" stroke-opacity="0.22" stroke-linecap="round">
    <path d="M 148 190 L 370 182"/>
    <path d="M 142 290 L 382 284"/>
    <path d="M 152 356 L 372 350"/>
    <path d="M 186 410 L 348 406"/>
  </g>
  <!-- Ear disc -->
  <g fill="#000">
    <circle cx="338" cy="310" r="34"/>
  </g>
  <circle cx="338" cy="310" r="18" fill="#ffffff" fill-opacity="0.35"/>
  <circle cx="338" cy="310" r="7" fill="#000"/>
</svg>
